<?xml version="1.0" encoding="UTF-8" standalone="no"?>
<svg width="100%" height="100%" version="1.1" viewBox="0 0 3.441 3.441" xmlns="http://www.w3.org/2000/svg"
  xmlns:svg="http://www.w3.org/2000/svg">
  <path fill="#171717"
    d="M 1.1210938,0 A 0.15100784,0.15100784 0 0 0 1.015625,0.04492187 L 0.83789062,0.22070312 A 0.15076902,0.15076902 0 0 0 0.79296875,0.328125 v 0.66796875 a 0.0625,0.0625 0 0 1 -0.0625,0.0625 H 0.32617188 a 0.0625,0.0625 0 0 0 -0.0625,0.0625 v 1.1972656 a 0.15010448,0.15010448 0 0 0 0.0449219,0.1074218 l 0.17773437,0.1738282 a 0.15167923,0.15167923 0 0 0 0.10546876,0.044922 h 0.13867187 a 0.0625,0.0625 0 0 1 0.0625,0.0625 v 0.6699219 a 0.0625,0.0625 0 0 0 0.0625,0.0625 H 2.8476562 a 0.0625,0.0625 0 0 0 0.0625,-0.0625 v -0.669922 a 0.0625,0.0625 0 0 1 0.0625,-0.0625 h 0.140625 a 0.0625,0.0625 0 0 0 0.0625,-0.0625 V 1.1210938 A 0.15088835,0.15088835 0 0 0 3.1328125,1.0136719 L 2.9550781,0.83789062 A 0.15088835,0.15088835 0 0 0 2.8476562,0.79296875 H 1.6503906 a 0.0625,0.0625 0 0 1 -0.0625,-0.0625 V 0.0625 A 0.0625,0.0625 0 0 0 1.5253906,0 Z" />
  <path fill="#00b9ed"
    d="m 1.1843644,0.20124978 c -0.040361,7.159e-5 -0.079025,0.0162399 -0.1074218,0.0449219 l -0.039063,0.0390625 c -0.028805,0.028313 -0.0449959,0.067032 -0.0449219,0.10742187 V 1.9805467 c 0,0.034518 -0.027982,0.0625 -0.0625,0.0625 H 0.8562389 c -0.034518,0 -0.0625,-0.027982 -0.0625,-0.0625 V 1.3047654 c 0,-0.034518 -0.027982,-0.0625 -0.0625,-0.0625 H 0.52616131 c -0.034518,0 -0.0625,0.027982 -0.0625,0.0625 V 1.6407029 2.1055467 2.252031 c -1.336e-4,0.040402 0.0160669,0.079143 0.0449219,0.1074219 l 0.0566406,0.056641 c 0.028748,0.027916 0.067352,0.043358 0.10742188,0.042969 h 0.2578125 c 0.034518,0 0.0625,0.027982 0.0625,0.0625 v 0.65625 c 1.89e-6,0.034517 0.027983,0.062498 0.0625,0.0625 h 1.59375 c 0.034519,1.9e-6 0.062502,-0.027981 0.0625,-0.0625 v -0.65625 c 0,-0.034518 0.027982,-0.0625 0.0625,-0.0625 h 0.140625 c 0.034539,5.06e-5 0.062551,-0.027961 0.0625,-0.0625 L 2.9753832,1.1856254 C 2.9753496,1.1452574 2.9591752,1.1065784 2.9304612,1.0782035 L 2.8738202,1.0235165 C 2.8459422,0.9952505 2.8080482,0.9791106 2.7683514,0.9785946 h -0.058594 c -0.034518,0 -0.0625,0.0279821 -0.0625,0.0625 v 0.2753906 c 0,0.034518 -0.027982,0.0625 -0.0625,0.0625 h -0.074219 c -0.034518,0 -0.0625,-0.027982 -0.0625,-0.0625 V 1.0410935 c 0,-0.034518 -0.027982,-0.0625 -0.0625,-0.0625 H 2.1804582 c -0.034518,0 -0.0625,0.0279821 -0.0625,0.0625 v 0.2753906 c 0,0.034518 -0.027982,0.0625 -0.0625,0.0625 h -0.074219 c -0.034518,0 -0.0625,-0.027982 -0.0625,-0.0625 V 1.0410935 c 0,-0.034518 -0.027982,-0.0625 -0.0625,-0.0625 h -0.203125 c -0.034518,0 -0.0625,0.0279821 -0.0625,0.0625 v 0.4746094 c 0,0.034518 -0.027982,0.0625 -0.0625,0.0625 h -0.076172 c -0.034518,0 -0.0625,-0.027982 -0.0625,-0.0625 V 0.91609352 0.26374978 c 0,-0.034518 -0.027982,-0.0625 -0.0625,-0.0625 z" />
  <path fill="#171717"
    d="M 1.0151487,0.04416944 0.83796143,0.22115856 A 0.15076902,0.15076902 0 0 0 0.79374253,0.327828 v 0.6682653 a 0.0625,0.0625 0 0 1 -0.0625,0.0625 H 0.32694554 a 0.0625,0.0625 0 0 0 -0.0625,0.0625 v 1.1972661 a 0.15010448,0.15010448 0 0 0 0.0443569,0.1065308 L 0.4857136,2.6005006 a 0.15167923,0.15167923 0 0 0 0.10685694,0.044031 h 0.13867199 a 0.0625,0.0625 0 0 1 0.0625,0.0625 v 0.6699219 a 0.0625,0.0625 0 0 0 0.0625,0.0625 H 2.8484294 a 0.0625,0.0625 0 0 0 0.0625,-0.0625 v -0.669922 a 0.0625,0.0625 0 0 1 0.0625,-0.0625 h 0.140625 a 0.0625,0.0625 0 0 0 0.0625,-0.0625 V 1.1210933 A 0.15088835,0.15088835 0 0 0 3.1323602,1.0143991 L 2.9551236,0.83716247 A 0.15088835,0.15088835 0 0 0 2.8484294,0.7929683 H 1.6511635 a 0.0625,0.0625 0 0 1 -0.0625,-0.0625 V 0.0625 A 0.0625,0.0625 0 0 0 1.5261635,0 H 1.1218676 A 0.15100784,0.15100784 0 0 0 1.0151487,0.04416944 Z M 1.1849976,0.2013281 h 0.141945 a 0.0625,0.0625 0 0 1 0.0625,0.0625 v 0.6521871 0.5996103 a 0.0625,0.0625 0 0 0 0.0625,0.0625 h 0.076172 a 0.0625,0.0625 0 0 0 0.0625,-0.0625 V 1.0410152 a 0.0625,0.0625 0 0 1 0.0625,-0.0625 h 0.2031249 a 0.0625,0.0625 0 0 1 0.0625,0.0625 v 0.2753912 a 0.0625,0.0625 0 0 0 0.0625,0.0625 h 0.074218 a 0.0625,0.0625 0 0 0 0.0625,-0.0625 V 1.0410152 a 0.0625,0.0625 0 0 1 0.0625,-0.0625 h 0.2050783 a 0.0625,0.0625 0 0 1 0.0625,0.0625 v 0.2753913 a 0.0625,0.0625 0 0 0 0.0625,0.0625 h 0.074219 a 0.0625,0.0625 0 0 0 0.0625,-0.0625 V 1.0410152 a 0.0625,0.0625 0 0 1 0.0625,-0.0625 h 0.058594 a 0.15088783,0.15088783 0 0 1 0.1066941,0.0441943 l 0.056143,0.056143 a 0.15120089,0.15120089 0 0 1 0.044285,0.1066942 l 0.00177,1.2109374 a 0.06240884,0.06240884 0 0 1 -0.062409,0.0625 h -0.140625 a 0.0625,0.0625 0 0 0 -0.0625,0.0625 V 3.177828 a 0.06249658,0.06249658 0 0 1 -0.0625,0.062497 L 1.0549958,3.2402378 A 0.06250342,0.06250342 0 0 1 0.99249585,3.1777348 V 2.5218284 a 0.0625,0.0625 0 0 0 -0.0625,-0.0625 H 0.67264254 A 0.1520754,0.1520754 0 0 1 0.56570484,2.4153791 L 0.50809524,2.3584027 A 0.14971703,0.14971703 0 0 1 0.46365754,2.2519534 V 2.1054684 1.6406255 1.3046873 a 0.0625,0.0625 0 0 1 0.0625,-0.0625 h 0.20507899 a 0.0625,0.0625 0 0 1 0.0625,0.0625 v 0.6757811 a 0.0625,0.0625 0 0 0 0.0625,0.0625 h 0.0742181 a 0.0625,0.0625 0 0 0 0.0625,-0.0625 V 0.392578 A 0.15023555,0.15023555 0 0 1 1.0372843,0.28601973 L 1.078168,0.24538633 A 0.151546,0.151546 0 0 1 1.1849976,0.2013281 Z" />
</svg>